<?xml version="1.0" encoding="utf-8"?>
<svg version="1.1" xmlns:xlink="http://www.w3.org/1999/xlink" width="125px" height="140px" xmlns="http://www.w3.org/2000/svg">
  <g transform="matrix(1 0 0 1 -15 -95 )">
    <path d="M 15 95  L 140 95  L 140 235  L 15 235  L 15 95  " fill-rule="nonzero" fill="#cccccc" stroke="none" />
    <path d="M 24 104  L 131 104  L 131 226  L 24 226  L 24 104  " fill-rule="nonzero" fill="#ffffff" stroke="none" />
    <path d="M 89.375 134.75  C 84.125 134.75  80 130.625  80 125.375  C 80 120.125  84.125 116  89.375 116  C 94.625 116  98.75 120.125  98.75 125.375  C 98.75 130.625  94.625 134.75  89.375 134.75  " fill-rule="nonzero" fill="#cccccc" stroke="none" />
    <path d="M 27 223  L 27 159.2  L 52.25 130.2  L 87.6 153.4  L 107.8 147.6  L 128 153.4  L 128 223  L 27 223  " fill-rule="nonzero" fill="#169bd5" stroke="none" />
  </g>
</svg>