<?xml version="1.0" encoding="utf-8"?>
<svg version="1.1" xmlns:xlink="http://www.w3.org/1999/xlink" width="85px" height="85px" xmlns="http://www.w3.org/2000/svg">
  <g transform="matrix(1 0 0 1 -58 -434 )">
    <path d="M 28.5784040178571 30.4085286458333  C 29.7642299107143 31.7919921875  30.3571428571429 33.4613715277778  30.3571428571429 35.4166666666667  C 30.3571428571429 37.3719618055556  29.7642299107143 39.0413411458333  28.5784040178571 40.4248046875  C 27.392578125 41.8082682291667  25.961681547619 42.5  24.2857142857143 42.5  C 22.6097470238095 42.5  21.1788504464286 41.8082682291667  19.9930245535714 40.4248046875  C 18.8071986607143 39.0413411458333  18.2142857142857 37.3719618055556  18.2142857142857 35.4166666666667  C 18.2142857142857 33.4613715277778  18.8071986607143 31.7919921875  19.9930245535714 30.4085286458333  C 21.1788504464286 29.0250651041667  22.6097470238095 28.3333333333333  24.2857142857143 28.3333333333333  C 25.961681547619 28.3333333333333  27.392578125 29.0250651041667  28.5784040178571 30.4085286458333  Z M 46.7926897321429 30.4085286458333  C 47.978515625 31.7919921875  48.5714285714286 33.4613715277778  48.5714285714286 35.4166666666667  C 48.5714285714286 37.3719618055556  47.978515625 39.0413411458333  46.7926897321429 40.4248046875  C 45.6068638392857 41.8082682291667  44.1759672619048 42.5  42.5 42.5  C 40.8240327380952 42.5  39.3931361607143 41.8082682291667  38.2073102678571 40.4248046875  C 37.021484375 39.0413411458333  36.4285714285714 37.3719618055556  36.4285714285714 35.4166666666667  C 36.4285714285714 33.4613715277778  37.021484375 31.7919921875  38.2073102678571 30.4085286458333  C 39.3931361607143 29.0250651041667  40.8240327380952 28.3333333333333  42.5 28.3333333333333  C 44.1759672619048 28.3333333333333  45.6068638392857 29.0250651041667  46.7926897321429 30.4085286458333  Z M 65.0069754464286 30.4085286458333  C 66.1928013392857 31.7919921875  66.7857142857143 33.4613715277778  66.7857142857143 35.4166666666667  C 66.7857142857143 37.3719618055556  66.1928013392857 39.0413411458333  65.0069754464286 40.4248046875  C 63.8211495535714 41.8082682291667  62.3902529761905 42.5  60.7142857142857 42.5  C 59.038318452381 42.5  57.607421875 41.8082682291667  56.4215959821429 40.4248046875  C 55.2357700892857 39.0413411458333  54.6428571428571 37.3719618055556  54.6428571428571 35.4166666666667  C 54.6428571428571 33.4613715277778  55.2357700892857 31.7919921875  56.4215959821429 30.4085286458333  C 57.607421875 29.0250651041667  59.038318452381 28.3333333333333  60.7142857142857 28.3333333333333  C 62.3902529761905 28.3333333333333  63.8211495535714 29.0250651041667  65.0069754464286 30.4085286458333  Z M 60.595703125 10.9293619791667  C 54.9827938988095 8.36534288194444  48.9508928571429 7.08333333333334  42.5 7.08333333333334  C 36.0491071428571 7.08333333333334  30.0172061011905 8.36534288194444  24.404296875 10.9293619791667  C 18.7913876488095 13.4933810763889  14.3326822916667 16.9520399305556  11.0281808035714 21.3053385416667  C 7.72367931547619 25.6586371527778  6.07142857142857 30.3624131944444  6.07142857142857 35.4166666666667  C 6.07142857142857 39.5486111111111  7.20191592261905 43.4868706597222  9.462890625 47.2314453125  C 11.723865327381 50.9760199652778  14.9097842261905 54.2133246527778  19.0206473214286 56.943359375  L 23.1473214285714 59.7102864583333  L 21.8666294642857 65.0227864583333  C 21.1077008928571 68.3799913194444  20.0009300595238 71.552734375  18.5463169642857 74.541015625  C 23.3528645833333 72.216796875  27.7008928571429 69.0625  31.5904017857143 65.078125  L 33.6300223214286 62.9752604166667  L 36.3337053571429 63.3072916666667  C 38.515625 63.6024305555556  40.571056547619 63.75  42.5 63.75  C 48.9508928571429 63.75  54.9827938988095 62.4679904513889  60.595703125 59.9039713541667  C 66.2086123511905 57.3399522569444  70.6673177083333 53.8812934027778  73.9718191964286 49.5279947916667  C 77.2763206845238 45.1746961805556  78.9285714285714 40.4709201388889  78.9285714285714 35.4166666666667  C 78.9285714285714 30.3624131944444  77.2763206845238 25.6586371527778  73.9718191964286 21.3053385416667  C 70.6673177083333 16.9520399305556  66.2086123511905 13.4933810763889  60.595703125 10.9293619791667  Z M 81.6322544642857 21.6650390625  C 83.8774181547619 26.0367838541667  85 30.6206597222222  85 35.4166666666667  C 85 41.8359375  83.1026785714286 47.7663845486111  79.3080357142857 53.2080078125  C 75.5133928571428 58.6496310763889  70.3590029761905 62.9475911458333  63.8448660714286 66.1018880208333  C 57.3307291666667 69.2561848958333  50.2157738095238 70.8333333333333  42.5 70.8333333333333  C 40.2864583333333 70.8333333333333  37.9938616071429 70.6857638888889  35.6222098214286 70.390625  C 29.3610491071429 76.8467881944444  22.0879836309524 81.3107638888889  13.8030133928571 83.7825520833333  C 12.2535342261905 84.2990451388889  10.4510788690476 84.7048611111111  8.39564732142857 85  L 8.15848214285714 85  C 7.68415178571429 85  7.25725446428571 84.8063151041667  6.87779017857143 84.4189453125  C 6.49832589285714 84.0315755208333  6.24534970238095 83.5243055555556  6.11886160714286 82.8971354166667  L 6.11886160714286 82.841796875  C 6.02399553571429 82.6942274305556  6.01609002976191 82.4728732638889  6.09514508928571 82.177734375  C 6.17420014880952 81.8825954861111  6.20582217261905 81.6981336805556  6.19001116071429 81.6243489583333  C 6.17420014880952 81.5505642361111  6.24534970238095 81.3753255208333  6.40345982142857 81.0986328125  L 6.68805803571429 80.6005859375  C 6.68805803571429 80.6005859375  6.79873511904762 80.4437934027778  7.02008928571429 80.1302083333333  C 7.24144345238095 79.8166232638889  7.36793154761905 79.6506076388889  7.39955357142857 79.6321614583333  C 7.62090773809524 79.3370225694444  8.11104910714286 78.7006293402778  8.86997767857143 77.7229817708333  C 9.62890625 76.7453342013889  10.1743861607143 76.0443793402778  10.5064174107143 75.6201171875  C 10.8384486607143 75.1958550347222  11.3285900297619 74.4672309027778  11.9768415178571 73.4342447916667  C 12.6250930059524 72.4012586805556  13.1389508928571 71.4605034722222  13.5184151785714 70.6119791666667  C 13.8978794642857 69.7634548611111  14.3247767857143 68.6751302083333  14.7991071428571 67.3470052083333  C 15.2734375 66.0188802083333  15.6845238095238 64.6169704861111  16.0323660714286 63.1412760416667  C 11.0677083333333 59.8578559027778  7.15448288690476 55.7996961805556  4.29268973214286 50.966796875  C 1.43089657738095 46.1338975694444  0 40.9505208333333  0 35.4166666666667  C 0 30.6206597222222  1.1225818452381 26.0367838541667  3.36774553571429 21.6650390625  C 5.61290922619048 17.2932942708333  8.6328125 13.5210503472222  12.4274553571429 10.3483072916667  C 16.2220982142857 7.1755642361111  20.7440476190476 4.65766059027777  25.9933035714286 2.79459635416666  C 31.2425595238095 0.931532118055551  36.7447916666667 0  42.5 0  C 48.2552083333333 0  53.7574404761905 0.931532118055551  59.0066964285714 2.79459635416666  C 64.2559523809524 4.65766059027777  68.7779017857143 7.1755642361111  72.5725446428572 10.3483072916667  C 76.3671875 13.5210503472222  79.3870907738095 17.2932942708333  81.6322544642857 21.6650390625  Z " fill-rule="nonzero" fill="#991db7" stroke="none" transform="matrix(1 0 0 1 58 434 )" />
  </g>
</svg>