<?xml version="1.0" encoding="utf-8"?>
<svg version="1.1" xmlns:xlink="http://www.w3.org/1999/xlink" width="85px" height="85px" xmlns="http://www.w3.org/2000/svg">
  <g transform="matrix(1 0 0 1 -267 -85 )">
    <path d="M 83.3096590909091 32.5994318181818  C 84.436553030303 33.7263257575757  85 35.094696969697  85 36.7045454545455  L 85 48.2954545454545  C 85 49.905303030303  84.436553030303 51.2736742424242  83.3096590909091 52.4005681818182  C 82.1827651515152 53.5274621212121  80.8143939393939 54.0909090909091  79.2045454545455 54  L 54 54  L 54 79.2045454545455  C 54.0909090909091 80.8143939393939  53.5274621212121 82.1827651515151  52.4005681818182 83.3096590909091  C 51.2736742424243 84.436553030303  49.905303030303 85  48.2954545454545 85  L 36.7045454545455 85  C 35.094696969697 85  33.7263257575758 84.436553030303  32.5994318181818 83.3096590909091  C 31.4725378787879 82.1827651515151  30.9090909090909 80.8143939393939  31 79.2045454545455  L 31 54  L 5.79545454545455 54  C 4.18560606060606 54.0909090909091  2.81723484848485 53.5274621212121  1.69034090909091 52.4005681818182  C 0.56344696969697 51.2736742424242  0 49.905303030303  0 48.2954545454545  L 0 36.7045454545455  C 0 35.094696969697  0.56344696969697 33.7263257575757  1.69034090909091 32.5994318181818  C 2.81723484848485 31.4725378787879  4.18560606060606 30.9090909090909  5.79545454545455 31  L 31 31  L 31 5.79545454545455  C 30.9090909090909 4.18560606060606  31.4725378787879 2.81723484848484  32.5994318181818 1.69034090909091  C 33.7263257575758 0.563446969696967  35.094696969697 0  36.7045454545455 0  L 48.2954545454545 0  C 49.905303030303 0  51.2736742424243 0.563446969696967  52.4005681818182 1.69034090909091  C 53.5274621212121 2.81723484848484  54.0909090909091 4.18560606060606  54 5.79545454545455  L 54 31  L 79.2045454545455 31  C 80.8143939393939 30.9090909090909  82.1827651515152 31.4725378787879  83.3096590909091 32.5994318181818  Z " fill-rule="nonzero" fill="#991db7" stroke="none" transform="matrix(1 0 0 1 267 85 )" />
  </g>
</svg>