<?xml version="1.0" encoding="utf-8"?>
<svg version="1.1" xmlns:xlink="http://www.w3.org/1999/xlink" width="85px" height="85px" xmlns="http://www.w3.org/2000/svg">
  <g transform="matrix(1 0 0 1 -58 -85 )">
    <path d="M 52.12890625 52.12890625  C 56.6070713141026 47.6507411858974  58.8461538461538 42.2616185897436  58.8461538461538 35.9615384615385  C 58.8461538461538 29.6614583333333  56.6070713141026 24.2723357371795  52.12890625 19.7941706730769  C 47.6507411858974 15.3160056089744  42.2616185897436 13.0769230769231  35.9615384615385 13.0769230769231  C 29.6614583333333 13.0769230769231  24.2723357371795 15.3160056089744  19.7941706730769 19.7941706730769  C 15.3160056089744 24.2723357371795  13.0769230769231 29.6614583333333  13.0769230769231 35.9615384615385  C 13.0769230769231 42.2616185897436  15.3160056089744 47.6507411858974  19.7941706730769 52.12890625  C 24.2723357371795 56.6070713141025  29.6614583333333 58.8461538461538  35.9615384615385 58.8461538461538  C 42.2616185897436 58.8461538461538  47.6507411858974 56.6070713141025  52.12890625 52.12890625  Z M 83.1099759615385 73.8641826923077  C 84.3699919871795 75.1241987179487  85 76.6566506410256  85 78.4615384615385  C 85 80.2323717948718  84.3529647435898 81.7648237179487  83.0588942307692 83.0588942307692  C 81.7648237179487 84.3529647435897  80.2323717948718 85  78.4615384615385 85  C 76.6225961538462 85  75.0901442307692 84.3529647435897  73.8641826923077 83.0588942307692  L 56.3431490384615 65.5889423076923  C 50.2473958333333 69.8116987179487  43.4535256410256 71.9230769230769  35.9615384615385 71.9230769230769  C 31.0917467948718 71.9230769230769  26.4347956730769 70.9780649038462  21.9906850961538 69.0880408653846  C 17.5465745192308 67.1980168269231  13.7154447115385 64.6439302884615  10.4972956730769 61.42578125  C 7.27914663461539 58.2076322115385  4.72506009615385 54.3765024038462  2.83503605769231 49.9323918269231  C 0.945012019230769 45.48828125  0 40.8313301282051  0 35.9615384615385  C 0 31.0917467948718  0.945012019230769 26.4347956730769  2.83503605769231 21.9906850961538  C 4.72506009615385 17.5465745192308  7.27914663461539 13.7154447115385  10.4972956730769 10.4972956730769  C 13.7154447115385 7.27914663461539  17.5465745192308 4.72506009615384  21.9906850961538 2.83503605769231  C 26.4347956730769 0.945012019230767  31.0917467948718 0  35.9615384615385 0  C 40.8313301282051 0  45.48828125 0.945012019230767  49.9323918269231 2.83503605769231  C 54.3765024038462 4.72506009615384  58.2076322115385 7.27914663461539  61.42578125 10.4972956730769  C 64.6439302884615 13.7154447115385  67.1980168269231 17.5465745192308  69.0880408653846 21.9906850961538  C 70.9780649038462 26.4347956730769  71.9230769230769 31.0917467948718  71.9230769230769 35.9615384615385  C 71.9230769230769 43.4535256410256  69.8116987179487 50.2473958333333  65.5889423076923 56.3431490384615  L 83.1099759615385 73.8641826923077  Z " fill-rule="nonzero" fill="#991db7" stroke="none" transform="matrix(1 0 0 1 58 85 )" />
  </g>
</svg>