<?xml version="1.0" encoding="utf-8"?>
<svg version="1.1" xmlns:xlink="http://www.w3.org/1999/xlink" width="85px" height="85px" xmlns="http://www.w3.org/2000/svg">
  <g transform="matrix(1 0 0 1 -267 -259 )">
    <path d="M 49.0852864583333 21.748046875  C 49.4173177083333 22.080078125  49.5833333333333 22.5043402777778  49 23.0208333333333  L 49 47.8125  C 49.5833333333333 48.3289930555556  49.4173177083333 48.7532552083333  49.0852864583333 49.0852864583333  C 48.7532552083333 49.4173177083333  48.3289930555556 49.5833333333333  47.8125 49  L 30.1041666666667 49  C 29.5876736111111 49.5833333333333  29.1634114583333 49.4173177083333  28.8313802083333 49.0852864583333  C 28.4993489583333 48.7532552083333  28.3333333333333 48.3289930555556  28.3333333333333 47.8125  L 28.3333333333333 44.2708333333333  C 28.3333333333333 43.7543402777778  28.4993489583333 43.330078125  28.8313802083333 42.998046875  C 29.1634114583333 42.666015625  29.5876736111111 42.5  30.1041666666667 42  L 42 42  L 42 23.0208333333333  C 42.5 22.5043402777778  42.666015625 22.080078125  42.998046875 21.748046875  C 43.330078125 21.416015625  43.7543402777778 21.25  44.2708333333333 21.25  L 47.8125 21.25  C 48.3289930555556 21.25  48.7532552083333 21.416015625  49.0852864583333 21.748046875  Z M 68.564453125 57.607421875  C 71.2575954861111 52.9958767361111  72.6041666666667 47.9600694444445  72.6041666666667 42.5  C 72.6041666666667 37.0399305555556  71.2575954861111 32.0041232638889  68.564453125 27.392578125  C 65.8713107638889 22.7810329861111  62.2189670138889 19.1286892361111  57.607421875 16.435546875  C 52.9958767361111 13.7424045138889  47.9600694444445 12.3958333333333  42.5 12.3958333333333  C 37.0399305555556 12.3958333333333  32.0041232638889 13.7424045138889  27.392578125 16.435546875  C 22.7810329861111 19.1286892361111  19.1286892361111 22.7810329861111  16.435546875 27.392578125  C 13.7424045138889 32.0041232638889  12.3958333333333 37.0399305555556  12.3958333333333 42.5  C 12.3958333333333 47.9600694444445  13.7424045138889 52.9958767361111  16.435546875 57.607421875  C 19.1286892361111 62.2189670138889  22.7810329861111 65.8713107638889  27.392578125 68.564453125  C 32.0041232638889 71.2575954861111  37.0399305555556 72.6041666666667  42.5 72.6041666666667  C 47.9600694444445 72.6041666666667  52.9958767361111 71.2575954861111  57.607421875 68.564453125  C 62.2189670138889 65.8713107638889  65.8713107638889 62.2189670138889  68.564453125 57.607421875  Z M 79.3001302083333 21.1669921875  C 83.1000434027778 27.6784939236111  85 34.7894965277778  85 42.5  C 85 50.2105034722222  83.1000434027778 57.3215060763889  79.3001302083333 63.8330078125  C 75.5002170138889 70.3445095486111  70.3445095486111 75.5002170138889  63.8330078125 79.3001302083333  C 57.3215060763889 83.1000434027778  50.2105034722222 85  42.5 85  C 34.7894965277778 85  27.6784939236111 83.1000434027778  21.1669921875 79.3001302083333  C 14.6554904513889 75.5002170138889  9.49978298611111 70.3445095486111  5.69986979166667 63.8330078125  C 1.89995659722222 57.3215060763889  0 50.2105034722222  0 42.5  C 0 34.7894965277778  1.89995659722222 27.6784939236111  5.69986979166667 21.1669921875  C 9.49978298611111 14.6554904513889  14.6554904513889 9.4997829861111  21.1669921875 5.69986979166666  C 27.6784939236111 1.89995659722221  34.7894965277778 0  42.5 0  C 50.2105034722222 0  57.3215060763889 1.89995659722221  63.8330078125 5.69986979166666  C 70.3445095486111 9.4997829861111  75.5002170138889 14.6554904513889  79.3001302083333 21.1669921875  Z " fill-rule="nonzero" fill="#991db7" stroke="none" transform="matrix(1 0 0 1 267 259 )" />
  </g>
</svg>