<?xml version="1.0" encoding="utf-8"?>
<svg version="1.1" xmlns:xlink="http://www.w3.org/1999/xlink" width="85px" height="85px" xmlns="http://www.w3.org/2000/svg">
  <g transform="matrix(1 0 0 1 -58 -259 )">
    <path d="M 70.224609375 54.1937053861129  C 71.8109809027778 50.461280553753  72.6041666666667 46.5541855937703  72.6041666666667 42.4724205061648  C 72.6041666666667 36.5520224962146  70.9993489583333 31.1280553752974  67.7897135416667 26.2005191434134  L 26.064453125 67.7352368591824  C 31.1187065972222 71.0080034609561  36.5972222222222 72.644386761843  42.5 72.644386761843  C 46.5950520833333 72.644386761843  50.4964192708333 71.844581440623  54.2041015625 70.244970798183  C 57.9117838541667 68.645360155743  61.1121961805556 66.5033528012113  63.8053385416667 63.8189487345879  C 66.4984809027778 61.1345446679645  68.6382378472222 57.9261302184728  70.224609375 54.1937053861129  Z M 12.3958333333333 42.4724205061648  C 12.3958333333333 48.429591174562  14.0375434027778 53.9271036123729  17.3209635416667 58.9649578195977  L 59.1015625 17.3750811161583  C 54.12109375 14.0287691974908  48.5872395833333 12.355613238157  42.5 12.355613238157  C 37.0399305555556 12.355613238157  32.0041232638889 13.6978152714687  27.392578125 16.3822193380921  C 22.7810329861111 19.0666234047155  19.1286892361111 22.7255029201817  16.435546875 27.3588578844906  C 13.7424045138889 31.9922128487995  12.3958333333333 37.0300670560242  12.3958333333333 42.4724205061648  Z M 81.6243489583333 25.9523036988968  C 83.8747829861111 31.1924075275795  85 36.6991131300022  85 42.4724205061648  C 85 48.2457278823275  83.8747829861111 53.7616266493619  81.6243489583333 59.020116807268  C 79.3739149305556 64.2786069651741  76.3579644097222 68.8016439541423  72.5764973958333 72.5892277741726  C 68.7950303819444 76.3768115942029  64.2757161458333 79.3921695868484  59.0185546875 81.635301752109  C 53.7613932291667 83.8784339173697  48.2552083333333 85  42.5 85  C 36.7447916666667 85  31.2386067708333 83.8784339173697  25.9814453125 81.635301752109  C 20.7242838541667 79.3921695868484  16.2049696180556 76.3768115942029  12.4235026041667 72.5892277741726  C 8.64203559027778 68.8016439541423  5.62608506944445 64.2786069651741  3.37565104166667 59.020116807268  C 1.12521701388889 53.7616266493619  0 48.2457278823275  0 42.4724205061648  C 0 36.6991131300022  1.12521701388889 31.1924075275795  3.37565104166667 25.9523036988968  C 5.62608506944445 20.7121998702141  8.64203559027778 16.1983560458577  12.4235026041667 12.4107722258274  C 16.2049696180556 8.62318840579709  20.7242838541667 5.60783041315162  25.9814453125 3.36469824789098  C 31.2386067708333 1.12156608263032  36.7447916666667 0  42.5 0  C 48.2552083333333 0  53.7613932291667 1.12156608263032  59.0185546875 3.36469824789098  C 64.2757161458333 5.60783041315162  68.7950303819444 8.62318840579709  72.5764973958333 12.4107722258274  C 76.3579644097222 16.1983560458577  79.3739149305556 20.7121998702141  81.6243489583333 25.9523036988968  Z " fill-rule="nonzero" fill="#991db7" stroke="none" transform="matrix(1 0 0 1 58 259 )" />
  </g>
</svg>