<?xml version="1.0" encoding="utf-8"?>
<svg version="1.1" xmlns:xlink="http://www.w3.org/1999/xlink" width="30px" height="32px" xmlns="http://www.w3.org/2000/svg">
  <g transform="matrix(1 0 0 1 -370 -4 )">
    <path d="M 29.62890625 26.075  C 29.8763020833333 26.3916666666667  30 26.7666666666667  30 27.2  L 30 30.4  C 30 30.8333333333333  29.8763020833333 31.2083333333333  29.62890625 31.525  C 29.3815104166667 31.8416666666667  29.0885416666667 32  28.75 32  L 1.25 32  C 0.911458333333333 32  0.618489583333333 31.8416666666667  0.37109375 31.525  C 0.123697916666667 31.2083333333333  0 30.8333333333333  0 30.4  L 0 27.2  C 0 26.7666666666667  0.123697916666667 26.3916666666667  0.37109375 26.075  C 0.618489583333333 25.7583333333333  0.911458333333333 25.6  1.25 25  L 28.75 25  C 29.0885416666667 25.6  29.3815104166667 25.7583333333333  29.62890625 26.075  Z M 29.62890625 13.275  C 29.8763020833333 13.5916666666667  30 13.9666666666667  30 14.4  L 30 17.6  C 30 18.0333333333333  29.8763020833333 18.4083333333333  29.62890625 18.725  C 29.3815104166667 19.0416666666667  29.0885416666667 19.2  28.75 19  L 1.25 19  C 0.911458333333333 19.2  0.618489583333333 19.0416666666667  0.37109375 18.725  C 0.123697916666667 18.4083333333333  0 18.0333333333333  0 17.6  L 0 14.4  C 0 13.9666666666667  0.123697916666667 13.5916666666667  0.37109375 13.275  C 0.618489583333333 12.9583333333333  0.911458333333333 12.8  1.25 13  L 28.75 13  C 29.0885416666667 12.8  29.3815104166667 12.9583333333333  29.62890625 13.275  Z M 29.62890625 0.475000000000001  C 29.8763020833333 0.791666666666664  30 1.16666666666666  30 1.6  L 30 4.8  C 30 5.23333333333333  29.8763020833333 5.60833333333333  29.62890625 5.925  C 29.3815104166667 6.24166666666666  29.0885416666667 6.4  28.75 7  L 1.25 7  C 0.911458333333333 6.4  0.618489583333333 6.24166666666666  0.37109375 5.925  C 0.123697916666667 5.60833333333333  0 5.23333333333333  0 4.8  L 0 1.6  C 0 1.16666666666666  0.123697916666667 0.791666666666664  0.37109375 0.475000000000001  C 0.618489583333333 0.158333333333331  0.911458333333333 0  1.25 0  L 28.75 0  C 29.0885416666667 0  29.3815104166667 0.158333333333331  29.62890625 0.475000000000001  Z " fill-rule="nonzero" fill="#000000" stroke="none" transform="matrix(1 0 0 1 370 4 )" />
  </g>
</svg>