<?xml version="1.0" encoding="utf-8"?>
<svg version="1.1" xmlns:xlink="http://www.w3.org/1999/xlink" width="59px" height="52px" xmlns="http://www.w3.org/2000/svg">
  <g transform="matrix(1 0 0 1 -291 -118 )">
    <path d="M 55.9897959183673 10.3932291666667  C 56.8869547819128 10.7317708333333  57.5834333733493 11.2170138888889  58.0792316926771 11.8489583333333  C 59.0236094437775 13.1354166666667  59.2360944377751 14.5911458333333  58.7166866746699 16.2161458333333  L 48.9777911164466 46.8880208333333  C 48.5292116846739 48.3324652777778  47.6261504601841 49.5455729166667  46.2686074429772 50.52734375  C 44.9110644257703 51.5091145833333  43.4649859943978 52  41.9303721488595 52  L 9.24309723889556 52  C 7.42517006802721 52  5.67216886754702 51.3962673611111  3.98409363745498 50.1888020833333  C 2.29601840736295 48.9813368055556  1.12144857943177 47.4973958333333  0.460384153661465 45.7369791666667  C -0.1062424969988 44.2248263888889  -0.129851940776311 42.7916666666667  0.389555822328932 41.4375  C 0.389555822328932 41.3472222222222  0.424969987995198 41.0425347222222  0.495798319327731 40.5234375  C 0.566626650660264 40.0043402777778  0.613845538215286 39.5868055555556  0.637454981992797 39.2708333333333  C 0.661064425770308 39.0902777777778  0.625650260104042 38.84765625  0.531212484993998 38.54296875  C 0.436774709883954 38.23828125  0.401360544217687 38.0182291666667  0.424969987995198 37.8828125  C 0.47218887555022 37.6345486111111  0.566626650660264 37.3975694444444  0.70828331332533 37.171875  C 0.849939975990396 36.9461805555556  1.04471788715486 36.6809895833333  1.29261704681873 36.3763020833333  C 1.54051620648259 36.0716145833333  1.73529411764706 35.8064236111111  1.87695078031212 35.5807291666667  C 2.41996798719488 34.7230902777778  2.95118047218888 33.6905381944444  3.47058823529412 32.4830729166667  C 3.98999599839936 31.2756076388889  4.34413765506203 30.2430555555556  4.53301320528211 29.3854166666667  C 4.60384153661465 29.1597222222222  4.60974389755902 28.8211805555556  4.55072028811525 28.3697916666667  C 4.49169667867147 27.9184027777778  4.48579431772709 27.6024305555556  4.53301320528211 27.421875  C 4.60384153661465 27.1736111111111  4.80452180872349 26.8576388888889  5.13505402160864 26.4739583333333  C 5.4655862344938 26.0902777777778  5.66626650660264 25.8307291666667  5.73709483793517 25.6953125  C 6.23289315726291 24.8828125  6.72869147659064 23.8446180555556  7.22448979591837 22.5807291666667  C 7.7202881152461 21.3168402777778  8.01540616246499 20.3012152777778  8.10984393757503 19.5338541666667  C 8.13345338135254 19.3307291666667  8.10394157663065 18.9696180555556  8.02130852340936 18.4505208333333  C 7.93867547018808 17.9314236111111  7.94457783113245 17.6154513888889  8.0390156062425 17.5026041666667  C 8.13345338135254 17.2092013888889  8.39315726290516 16.8650173611111  8.81812725090036 16.4700520833333  C 9.24309723889556 16.0750868055556  9.50280112044818 15.8211805555556  9.59723889555822 15.7083333333333  C 10.0458183273309 15.1215277777778  10.547519007603 14.16796875  11.1023409363745 12.84765625  C 11.6571628651461 11.52734375  11.9817927170868 10.4383680555556  12.0762304921969 9.58072916666666  C 12.0998399359744 9.4001736111111  12.0644257703081 9.11241319444444  11.9699879951981 8.71744791666666  C 11.875550220088 8.32248263888888  11.8519407763105 8.0234375  11.8991596638655 7.8203125  C 11.9463785514206 7.63975694444444  12.0526210484194 7.43663194444444  12.2178871548619 7.2109375  C 12.3831532613045 6.98524305555556  12.5956382553021 6.72569444444444  12.8553421368547 6.43229166666666  C 13.1150460184074 6.13888888888888  13.3157262905162 5.90190972222222  13.4573829531813 5.72135416666666  C 13.6462585034014 5.45052083333334  13.8410364145658 5.10633680555556  14.0417166866747 4.68880208333334  C 14.2423969587835 4.2712673611111  14.4194677871148 3.87630208333334  14.5729291716687 3.50390625  C 14.7263905562225 3.13151041666666  14.9152661064426 2.72526041666666  15.1395558223289 2.28515625  C 15.3638455382153 1.84505208333334  15.594037615046 1.48394097222222  15.8301320528211 1.20182291666666  C 16.0662264905962 0.919704861111104  16.3790516206483 0.654513888888884  16.7686074429772 0.40625  C 17.1581632653061 0.157986111111104  17.5831332533013 0.0282118055555549  18.0435174069628 0.0169270833333353  C 18.5039015606243 0.00564236111110406  19.0646258503401 0.0677083333333353  19.7256902761104 0.203125  L 19.6902761104442 0.3046875  C 20.5874349739896 0.1015625  21.1894757903161 0  21.4963985594238 0  L 48.4465786314526 0  C 50.1936774709884 0  51.5394157663065 0.631944444444439  52.483793517407 1.89583333333334  C 53.4281712685074 3.15972222222222  53.640656262505 4.6267361111111  53.1212484993998 6.296875  L 43.4177671068427 36.96875  C 42.5678271308523 39.6545138888889  41.7237895158063 41.38671875  40.8856542617047 42.1653645833333  C 40.0475190076031 42.9440104166667  38.530612244898 43.3333333333333  36.3349339735894 43  L 5.56002400960384 43  C 4.92256902761105 43.3333333333333  4.47398959583834 43.5026041666667  4.21428571428571 43.8411458333333  C 3.95458183273309 44.2022569444444  3.94277711084434 44.6875  4.17887154861945 45.296875  C 4.74549819927971 46.8767361111111  6.4453781512605 47.6666666666667  9.27851140456182 47  L 41.9657863145258 47  C 42.6504601840736 47.6666666666667  43.3115246098439 47.4917534722222  43.9489795918367 47.1419270833333  C 44.5864345738295 46.7921006944444  44.999599839936 46.3237847222222  45.1884753901561 45.7369791666667  L 55.812725090036 12.3229166666667  C 55.9779911964786 11.8263888888889  56.0370148059224 11.1831597222222  55.9897959183673 10.3932291666667  Z M 21.1422569027611 9.75  L 20.3985594237695 11.9166666666667  C 20.3041216486595 12.2100694444444  20.327731092437 12.4639756944444  20.469387755102 12.6783854166667  C 20.6110444177671 12.8927951388889  20.8471388555422 13  21.1776710684274 13  L 42.7094837935174 13  C 43.0164065626251 13  43.3174269707883 12.8927951388889  43.6125450180072 12.6783854166667  C 43.9076630652261 12.4639756944444  44.1024409763906 12.2100694444444  44.1968787515006 11.9166666666667  L 44.9405762304922 9.75  C 45.0350140056022 9.45659722222222  45.0114045618247 9.20269097222222  44.8697478991597 8.98828125  C 44.7280912364946 8.77387152777778  44.4919967987195 8.66666666666666  44.1614645858343 9  L 22.6296518607443 9  C 22.3227290916367 8.66666666666666  22.0217086834734 8.77387152777778  21.7265906362545 8.98828125  C 21.4314725890356 9.20269097222222  21.2366946778712 9.45659722222222  21.1422569027611 9.75  Z M 18.202881152461 18.4166666666667  L 17.4591836734694 20.5833333333333  C 17.3647458983593 20.8767361111111  17.3883553421369 21.1306423611111  17.5300120048019 21.3450520833333  C 17.671668667467 21.5594618055556  17.9077631052421 21.6666666666667  18.2382953181273 22  L 39.7701080432173 22  C 40.0770308123249 21.6666666666667  40.3780512204882 21.5594618055556  40.6731692677071 21.3450520833333  C 40.968287314926 21.1306423611111  41.1630652260904 20.8767361111111  41.2575030012005 20.5833333333333  L 42.0012004801921 18.4166666666667  C 42.0956382553021 18.1232638888889  42.0720288115246 17.8693576388889  41.9303721488595 17.6549479166667  C 41.7887154861945 17.4405381944444  41.5526210484194 17.3333333333333  41.2220888355342 18  L 19.6902761104442 18  C 19.3833533413365 17.3333333333333  19.0823329331733 17.4405381944444  18.7872148859544 17.6549479166667  C 18.4920968387355 17.8693576388889  18.297318927571 18.1232638888889  18.202881152461 18.4166666666667  Z " fill-rule="nonzero" fill="#991db7" stroke="none" transform="matrix(1 0 0 1 291 118 )" />
  </g>
</svg>