<?xml version="1.0" encoding="utf-8"?>
<svg version="1.1" xmlns:xlink="http://www.w3.org/1999/xlink" width="52px" height="52px" xmlns="http://www.w3.org/2000/svg">
  <g transform="matrix(1 0 0 1 -265 -102 )">
    <path d="M 50.9659090909091 19.9431818181818  C 51.655303030303 20.6325757575758  52 21.469696969697  52 22.4545454545455  L 52 29.5454545454545  C 52 30.530303030303  51.655303030303 31.3674242424242  50.9659090909091 32.0568181818182  C 50.2765151515152 32.7462121212121  49.4393939393939 33.0909090909091  48.4545454545455 33  L 33 33  L 33 48.4545454545455  C 33.0909090909091 49.4393939393939  32.7462121212121 50.2765151515151  32.0568181818182 50.9659090909091  C 31.3674242424242 51.655303030303  30.530303030303 52  29.5454545454545 52  L 22.4545454545455 52  C 21.469696969697 52  20.6325757575758 51.655303030303  19.9431818181818 50.9659090909091  C 19.2537878787879 50.2765151515151  18.9090909090909 49.4393939393939  19 48.4545454545455  L 19 33  L 3.54545454545455 33  C 2.56060606060606 33.0909090909091  1.72348484848485 32.7462121212121  1.03409090909091 32.0568181818182  C 0.34469696969697 31.3674242424242  0 30.530303030303  0 29.5454545454545  L 0 22.4545454545455  C 0 21.469696969697  0.34469696969697 20.6325757575758  1.03409090909091 19.9431818181818  C 1.72348484848485 19.2537878787879  2.56060606060606 18.9090909090909  3.54545454545455 19  L 19 19  L 19 3.54545454545455  C 18.9090909090909 2.56060606060606  19.2537878787879 1.72348484848485  19.9431818181818 1.03409090909091  C 20.6325757575758 0.344696969696968  21.469696969697 0  22.4545454545455 0  L 29.5454545454545 0  C 30.530303030303 0  31.3674242424242 0.344696969696968  32.0568181818182 1.03409090909091  C 32.7462121212121 1.72348484848485  33.0909090909091 2.56060606060606  33 3.54545454545455  L 33 19  L 48.4545454545455 19  C 49.4393939393939 18.9090909090909  50.2765151515152 19.2537878787879  50.9659090909091 19.9431818181818  Z " fill-rule="nonzero" fill="#991db7" stroke="none" transform="matrix(1 0 0 1 265 102 )" />
  </g>
</svg>