<?xml version="1.0" encoding="utf-8"?>
<svg version="1.1" xmlns:xlink="http://www.w3.org/1999/xlink" width="85px" height="85px" xmlns="http://www.w3.org/2000/svg">
  <g transform="matrix(1 0 0 1 -265 -259 )">
    <path d="M 66.240234375 48.5319010416667  C 66.9411892361111 47.8309461805556  67.2916666666667 47.0008680555556  67.2916666666667 46.0416666666667  L 67.2916666666667 38.9583333333333  C 67.2916666666667 37.9991319444444  66.9411892361111 37.1690538194444  66.240234375 36.4680989583333  C 65.5392795138889 35.7671440972222  64.7092013888889 35.4166666666667  63.75 36  L 49 36  L 49 21.25  C 49.5833333333333 20.2907986111111  49.2328559027778 19.4607204861111  48.5319010416667 18.759765625  C 47.8309461805556 18.0588107638889  47.0008680555556 17.7083333333333  46.0416666666667 17.7083333333333  L 38.9583333333333 17.7083333333333  C 37.9991319444445 17.7083333333333  37.1690538194445 18.0588107638889  36.4680989583333 18.759765625  C 35.7671440972222 19.4607204861111  35.4166666666667 20.2907986111111  36 21.25  L 36 36  L 21.25 36  C 20.2907986111111 35.4166666666667  19.4607204861111 35.7671440972222  18.759765625 36.4680989583333  C 18.0588107638889 37.1690538194444  17.7083333333333 37.9991319444444  17.7083333333333 38.9583333333333  L 17.7083333333333 46.0416666666667  C 17.7083333333333 47.0008680555556  18.0588107638889 47.8309461805556  18.759765625 48.5319010416667  C 19.4607204861111 49.2328559027778  20.2907986111111 49.5833333333333  21.25 49  L 36 49  L 36 63.75  C 35.4166666666667 64.7092013888889  35.7671440972222 65.5392795138889  36.4680989583333 66.240234375  C 37.1690538194445 66.9411892361111  37.9991319444445 67.2916666666667  38.9583333333333 67.2916666666667  L 46.0416666666667 67.2916666666667  C 47.0008680555556 67.2916666666667  47.8309461805556 66.9411892361111  48.5319010416667 66.240234375  C 49.2328559027778 65.5392795138889  49.5833333333333 64.7092013888889  49 63.75  L 49 49  L 63.75 49  C 64.7092013888889 49.5833333333333  65.5392795138889 49.2328559027778  66.240234375 48.5319010416667  Z M 79.3001302083333 21.1669921875  C 83.1000434027778 27.6784939236111  85 34.7894965277778  85 42.5  C 85 50.2105034722222  83.1000434027778 57.3215060763889  79.3001302083333 63.8330078125  C 75.5002170138889 70.3445095486111  70.3445095486111 75.5002170138889  63.8330078125 79.3001302083333  C 57.3215060763889 83.1000434027778  50.2105034722222 85  42.5 85  C 34.7894965277778 85  27.6784939236111 83.1000434027778  21.1669921875 79.3001302083333  C 14.6554904513889 75.5002170138889  9.49978298611111 70.3445095486111  5.69986979166667 63.8330078125  C 1.89995659722222 57.3215060763889  0 50.2105034722222  0 42.5  C 0 34.7894965277778  1.89995659722222 27.6784939236111  5.69986979166667 21.1669921875  C 9.49978298611111 14.6554904513889  14.6554904513889 9.4997829861111  21.1669921875 5.69986979166666  C 27.6784939236111 1.89995659722221  34.7894965277778 0  42.5 0  C 50.2105034722222 0  57.3215060763889 1.89995659722221  63.8330078125 5.69986979166666  C 70.3445095486111 9.4997829861111  75.5002170138889 14.6554904513889  79.3001302083333 21.1669921875  Z " fill-rule="nonzero" fill="#991db7" stroke="none" transform="matrix(1 0 0 1 265 259 )" />
  </g>
</svg>