<?xml version="1.0" encoding="utf-8"?>
<svg version="1.1" xmlns:xlink="http://www.w3.org/1999/xlink" width="35px" height="30px" xmlns="http://www.w3.org/2000/svg">
  <g transform="matrix(1 0 0 1 -8 -47 )">
    <path d="M 29.9690210656753 17.1395167575994  C 29.9834779016935 17.1706936866719  29.9907063197026 17.2174590802806  30 17.2798129384256  L 30 28.5035074045207  C 29.9907063197026 28.908807482463  29.8533663775299 29.2595479345284  29.5786864931846 29.5557287607171  C 29.3040066088393 29.8519095869057  28.9787277984304 30  28.6028500619579 30  L 20.2757125154895 30  L 20.2757125154895 21.0210444271239  L 14.7242874845105 21.0210444271239  L 14.7242874845105 30  L 6.39714993804213 30  C 6.0212722015696 30  5.69599339116068 29.8519095869057  5.42131350681537 29.5557287607171  C 5.14663362247005 29.2595479345284  5.0092936802974 28.908807482463  5 28.5035074045207  L 5 17.2798129384256  C 5.0092936802974 17.2642244738893  5.01290788930194 17.240841777085  5.02013630731103 17.2096648480125  C 5.02736472532012 17.17848791894  5.03097893432466 17.1551052221356  5.03097893432466 17.1395167575994  L 17.5 6.05611847233047  L 29.9690210656753 17.1395167575994  Z M 34.9783147459727 15.1169134840218  C 34.9927715819909 15.3273577552611  34.9421726559273 15.510522213562  34.8265179677819 15.6664068589244  L 33.4820322180917 17.3967264224474  C 33.3663775299463 17.5370226032736  33.2145807517555 17.6227591582229  33.0266418835192 17.6539360872954  L 32.9615861214374 17.6539360872954  C 32.7736472532012 17.6539360872954  32.6218504750103 17.5993764614185  32.5061957868649 17.4902572096648  L 17.5 3.99844115354638  L 2.49380421313507 17.4902572096648  C 2.32032218091698 17.6149649259548  2.14684014869888 17.6695245518316  1.97335811648079 17.6539360872954  C 1.78541924824453 17.6227591582229  1.6336224700537 17.5370226032736  1.5179677819083 17.3967264224474  L 0.173482032218092 15.6664068589244  C 0.0578273440726973 15.510522213562  0.00722841800908721 15.3273577552611  0.0216852540272615 15.1169134840218  C 0.0361420900454359 14.9064692127825  0.115654688145395 14.7388932190179  0.260223048327138 14.614185502728  L 15.8519206939281 0.607950116913485  C 16.3145394465097 0.202650038971158  16.8638992152003 0  17.5 0  C 18.1361007847997 0  18.6854605534903 0.202650038971158  19.1480793060719 0.607950116913485  L 24.4392812887237 5.3780202650039  L 24.4392812887237 0.818394388152766  C 24.4392812887237 0.600155884645359  24.5043370508055 0.420888542478565  24.634448574969 0.280592361652379  C 24.7645600991326 0.140296180826189  24.9308137133416 0.0701480904130947  25.133209417596 0.0701480904130947  L 29.2967781908302 0.0701480904130947  C 29.4991738950847 0.0701480904130947  29.6654275092937 0.140296180826189  29.7955390334572 0.280592361652379  C 29.9256505576208 0.420888542478565  29.9907063197026 0.600155884645359  29.9907063197026 0.818394388152766  L 29.9907063197026 10.3585346843336  L 34.7397769516729 14.614185502728  C 34.8843453118546 14.7388932190179  34.9638579099546 14.9064692127825  34.9783147459727 15.1169134840218  Z " fill-rule="nonzero" fill="#f9f8f8" stroke="none" transform="matrix(1 0 0 1 8 47 )" />
  </g>
</svg>