<?xml version="1.0" encoding="utf-8"?>
<svg version="1.1" xmlns:xlink="http://www.w3.org/1999/xlink" width="38px" height="33px" xmlns="http://www.w3.org/2000/svg">
  <g transform="matrix(1 0 0 1 -271 -374 )">
    <path d="M 9.462890625 2.212890625  C 12.3739149305556 0.73763020833333  15.5529513888889 0  19 0  C 22.4470486111111 0  25.6260850694445 0.73763020833333  28.537109375 2.212890625  C 31.4481336805556 3.68815104166666  33.7530381944445 5.68977864583333  35.4518229166667 8.2177734375  C 37.1506076388889 10.7457682291667  38 13.5065104166667  38 16.5  C 38 19.4934895833333  37.1506076388889 22.2542317708333  35.4518229166667 24.7822265625  C 33.7530381944445 27.3102213541667  31.4481336805556 29.3118489583333  28.537109375 30.787109375  C 25.6260850694445 32.2623697916667  22.4470486111111 33  19 33  C 15.5529513888889 33  12.3739149305556 32.2623697916667  9.462890625 30.787109375  C 6.55186631944444 29.3118489583333  4.24696180555556 27.3102213541667  2.54817708333333 24.7822265625  C 0.849392361111111 22.2542317708333  0 19.4934895833333  0 16.5  C 0 13.5065104166667  0.849392361111111 10.7457682291667  2.54817708333333 8.2177734375  C 4.24696180555556 5.68977864583333  6.55186631944444 3.68815104166666  9.462890625 2.212890625  Z M 15.0416666666667 24.556640625  L 28.5 17.681640625  C 29.0277777777778 17.423828125  29.2916666666667 17.0299479166667  29.2916666666667 16.5  C 29.2916666666667 15.9700520833333  29.0277777777778 15.576171875  28.5 15.318359375  L 15.0416666666667 8.443359375  C 14.5303819444444 8.17122395833333  14.0026041666667 8.1640625  13.4583333333333 8.421875  C 12.9305555555556 8.69401041666666  12.6666666666667 9.09505208333333  13 9.625  L 13 23.375  C 12.6666666666667 23.9049479166667  12.9305555555556 24.3059895833333  13.4583333333333 24.578125  C 13.7222222222222 24.6927083333333  13.9861111111111 24.75  14.25 24.75  C 14.5303819444444 24.75  14.7942708333333 24.685546875  15.0416666666667 24.556640625  Z " fill-rule="nonzero" fill="#45c113" stroke="none" transform="matrix(1 0 0 1 271 374 )" />
  </g>
</svg>