<?xml version="1.0" encoding="utf-8"?>
<svg version="1.1" xmlns:xlink="http://www.w3.org/1999/xlink" width="8px" height="8px" xmlns="http://www.w3.org/2000/svg">
  <g transform="matrix(1 0 0 1 -34 -4 )">
    <path d="M 38 4  C 40.24 4  42 5.76  42 8  C 42 10.24  40.24 12  38 12  C 35.76 12  34 10.24  34 8  C 34 5.76  35.76 4  38 4  Z " fill-rule="nonzero" fill="#ffffff" stroke="none" />
    <path d="M 38 4.5  C 39.96 4.5  41.5 6.04  41.5 8  C 41.5 9.96  39.96 11.5  38 11.5  C 36.04 11.5  34.5 9.96  34.5 8  C 34.5 6.04  36.04 4.5  38 4.5  Z " stroke-width="1" stroke="#797979" fill="none" />
  </g>
</svg>