<?xml version="1.0" encoding="utf-8"?>
<svg version="1.1" xmlns:xlink="http://www.w3.org/1999/xlink" width="25px" height="36px" xmlns="http://www.w3.org/2000/svg">
  <defs>
    <radialGradient cx="12.5" cy="18.3600000000002" r="25.0880829015544" gradientTransform="matrix(0.694444444444444 -6.37243252796E-15 9.17630284026241E-15 1 3.81944444444429 7.86384588178359E-14 )" gradientUnits="userSpaceOnUse" id="RadialGradient255">
      <stop id="Stop256" stop-color="#f9f8f8" offset="0" />
      <stop id="Stop257" stop-color="#888888" offset="0.45" />
      <stop id="Stop258" stop-color="#000000" offset="1" />
    </radialGradient>
  </defs>
  <g transform="matrix(1 0 0 1 -18 -372 )">
    <path d="M 25 5.13647642679901  C 25 5.52357320099255  24.8471685971686 5.85856079404466  24.5415057915058 6.14143920595534  L 11.7277992277992 18  L 24.5415057915058 29.8585607940447  C 24.8471685971686 30.1414392059553  25 30.4764267990074  25 30.863523573201  C 25 31.2506203473945  24.8471685971686 31.5856079404467  24.5415057915058 31.8684863523573  L 20.5357142857143 35.575682382134  C 20.2300514800515 35.8585607940447  19.8680823680824 36  19.4498069498069 36  C 19.0315315315315 36  18.6695624195624 35.8585607940447  18.3638996138996 35.575682382134  L 0.458494208494209 19.0049627791563  C 0.152831402831403 18.7220843672457  0 18.3870967741935  0 18  C 0 17.6129032258065  0.152831402831403 17.2779156327543  0.458494208494209 16.9950372208437  L 18.3638996138996 0.424317617866004  C 18.6695624195624 0.141439205955333  19.0315315315315 0  19.4498069498069 0  C 19.8680823680824 0  20.2300514800515 0.141439205955333  20.5357142857143 0.424317617866004  L 24.5415057915058 4.13151364764268  C 24.8471685971686 4.41439205955335  25 4.74937965260545  25 5.13647642679901  Z " fill-rule="nonzero" fill="url(#RadialGradient255)" stroke="none" transform="matrix(1 0 0 1 18 372 )" />
  </g>
</svg>