<?xml version="1.0" encoding="utf-8"?>
<svg version="1.1" xmlns:xlink="http://www.w3.org/1999/xlink" width="25px" height="39px" xmlns="http://www.w3.org/2000/svg">
  <defs>
    <radialGradient cx="12.5" cy="19.8900000000002" r="27.1787564766839" gradientTransform="matrix(0.64102564102564 -6.40511166912903E-15 9.9919742038413E-15 1 4.4871794871793 7.95091970741142E-14 )" gradientUnits="userSpaceOnUse" id="RadialGradient259">
      <stop id="Stop260" stop-color="#f9f8f8" offset="0" />
      <stop id="Stop261" stop-color="#888888" offset="0.45" />
      <stop id="Stop262" stop-color="#000000" offset="1" />
    </radialGradient>
  </defs>
  <g transform="matrix(1 0 0 1 -370 -369 )">
    <path d="M 25 19.5  C 25 19.9193548387097  24.8471685971686 20.2822580645161  24.5415057915058 20.5887096774194  L 6.63610038610039 38.5403225806452  C 6.33043758043758 38.8467741935484  5.96846846846847 39  5.55019305019305 39  C 5.13191763191763 39  4.76994851994852 38.8467741935484  4.46428571428571 38.5403225806452  L 0.458494208494209 34.5241935483871  C 0.152831402831403 34.2177419354839  0 33.8548387096774  0 33.4354838709677  C 0 33.0161290322581  0.152831402831403 32.6532258064516  0.458494208494209 32.3467741935484  L 13.2722007722008 19.5  L 0.458494208494209 6.65322580645161  C 0.152831402831403 6.34677419354838  0 5.98387096774193  0 5.56451612903226  C 0 5.14516129032257  0.152831402831403 4.78225806451613  0.458494208494209 4.4758064516129  L 4.46428571428571 0.459677419354838  C 4.76994851994852 0.153225806451611  5.13191763191763 0  5.55019305019305 0  C 5.96846846846847 0  6.33043758043758 0.153225806451611  6.63610038610039 0.459677419354838  L 24.5415057915058 18.4112903225806  C 24.8471685971686 18.7177419354839  25 19.0806451612903  25 19.5  Z " fill-rule="nonzero" fill="url(#RadialGradient259)" stroke="none" transform="matrix(1 0 0 1 370 369 )" />
  </g>
</svg>