<?xml version="1.0" encoding="utf-8"?>
<svg version="1.1" xmlns:xlink="http://www.w3.org/1999/xlink" width="60px" height="60px" xmlns="http://www.w3.org/2000/svg">
  <g transform="matrix(1 0 0 1 -255 0 )">
    <path d="M 285 0  C 301.8 0  315 13.2  315 30  C 315 46.8  301.8 60  285 60  C 268.2 60  255 46.8  255 30  C 255 13.2  268.2 0  285 0  Z " fill-rule="nonzero" fill="#fb0909" stroke="none" />
    <path d="M 285 0.5  C 301.52 0.5  314.5 13.48  314.5 30  C 314.5 46.52  301.52 59.5  285 59.5  C 268.48 59.5  255.5 46.52  255.5 30  C 255.5 13.48  268.48 0.5  285 0.5  Z " stroke-width="1" stroke="#797979" fill="none" />
  </g>
</svg>