<?xml version="1.0" encoding="utf-8"?>
<svg version="1.1" xmlns:xlink="http://www.w3.org/1999/xlink" width="16px" height="16px" viewBox="10 73  16 16" xmlns="http://www.w3.org/2000/svg">
  <path d="M 18 73  C 22.48 73  26 76.52  26 81  C 26 85.48  22.48 89  18 89  C 13.52 89  10 85.48  10 81  C 10 76.52  13.52 73  18 73  Z " fill-rule="nonzero" fill="#ffffff" stroke="none" />
  <path d="M 18 73.5  C 22.2 73.5  25.5 76.8  25.5 81  C 25.5 85.2  22.2 88.5  18 88.5  C 13.8 88.5  10.5 85.2  10.5 81  C 10.5 76.8  13.8 73.5  18 73.5  Z " stroke-width="1" stroke="#8c8c8c" fill="none" />
  <path d="M 18 85  C 15.76 85  14 83.24  14 81  C 14 78.76  15.76 77  18 77  C 20.24 77  22 78.76  22 81  C 22 83.24  20.24 85  18 85  " fill-rule="nonzero" fill="#8c8c8c" stroke="none" />
</svg>